<svg width="1309" height="570" viewBox="0 0 1309 570" xmlns="http://www.w3.org/2000/svg"><title>Confetti</title><desc>Created with Sketch.</desc><g fill="none"><path fill="#58FFEE" d="M875.524 162h8.09l-6.524 7.504h-8.09z"/><path fill="#58FFEE" d="M979.524 0h8.09l-6.524 7.504h-8.09z"/><path fill="#58FFEE" d="M1097.524 414h8.09l-6.524 7.504h-8.09z"/><path fill="#58FFEE" d="M690.524 421.35h8.09l-6.524 7.504h-8.09z"/><path fill="#58FFEE" d="M692.524 468.35h8.09l-6.524 7.504h-8.09z"/><path fill="#CFBD6F" d="M558.524 461h8.09l-6.524 7.504h-8.09z"/><path fill="#CFBD6F" d="M1081.524 562h8.09l-6.524 7.504h-8.09z"/><path fill="#58FFEE" d="M338.524 158h8.09l-6.524 7.504h-8.09z"/><path fill="#58FFEE" d="M413.524 86h8.09l-6.524 7.504h-8.09z"/><path fill="#58FFEE" d="M6.524 136h8.09l-6.524 7.504h-8.09z"/><path fill="#CFBD6F" d="M878.159 231.35h-9.159l12.992 14.944h9.159l-12.992-14.944"/><path fill="#64FFF0" d="M644.597 351.093l-12.46-8.093h-13.136l11.31 7.069 14.286 1.025"/><path fill="#64FFF0" d="M948.597 428.093l-12.46-8.093h-13.136l11.31 7.069 14.286 1.025"/><path fill="#64FFF0" d="M918.597 350.093l-12.46-8.093h-13.136l11.31 7.069 14.286 1.025"/><path fill="#64FFF0" d="M1308.597 316.093l-12.46-8.093h-13.136l11.31 7.069 14.286 1.025"/><path fill="#64FFF0" d="M289.597 564.093l-12.46-8.093h-13.136l11.31 7.069 14.286 1.025"/><path fill="#64FFF0" d="M708.82 319.617l-9.648-6.267h-10.172l8.758 5.473 11.062.794"/><path fill="#CFBD6F" d="M497 280.443l12.46-8.093h13.136l-11.31 7.069z"/><path fill="#CFBD6F" d="M958 259.093l12.46-8.093h13.136l-11.31 7.069z"/><path fill="#CFBD6F" d="M1001 429.093l12.46-8.093h13.136l-11.31 7.069z"/><path fill="#9EFFF5" d="M458.025 421.35l5.986 6.878-12.011.018 6.025-6.896"/><path fill="#9EFFF5" d="M782.025 275.35l5.986 6.878-12.011.018 6.025-6.896"/><path fill="#9EFFF5" d="M392.99 297l6.945 7.979-13.935.021 6.99-8"/><path fill="#9EFFF5" d="M222.99 324l6.945 7.979-13.935.021 6.99-8"/><path fill="#9EFFF5" d="M678.249 381.35l9.189 10.558-18.438.027 9.249-10.585"/><path fill="#9EFFF5" d="M538.249 205.35l9.189 10.558-18.438.027 9.249-10.585"/><path fill="#9EFFF5" d="M454.249 277.35l9.189 10.558-18.438.027 9.249-10.585"/><path fill="#9EFFF5" d="M995.249 147l9.189 10.558-18.438.027 9.249-10.585"/><path fill="#9EFFF5" d="M1142.249 33l9.189 10.558-18.438.027 9.249-10.585"/><path fill="#C5F9F4" d="M410 373h14v14h-14z"/><path fill="#C5F9F4" d="M289 403h14v14h-14z"/><path fill="#C5F9F4" d="M1100 269h14v14h-14z"/><path fill="#C5F9F4" d="M310 259.35h14v14h-14z"/><path fill="#C5F9F4" d="M862 89.35h14v14h-14z"/><path fill="#C5F9F4" d="M923 274.35h14v14h-14z"/><path fill="#C5F9F4" d="M799 428.35h14v14h-14z"/><path fill="#C5F9F4" d="M560 188h14v14h-14z"/><path fill="#C5F9F4" d="M235 45h14v14h-14z"/><path fill="#C5F9F4" d="M609 476.35h14v14h-14z"/><path d="M425.5 194.5l7.018 7.018" stroke="#CFBD6F" stroke-width="6" stroke-linecap="square"/><path d="M1233.5 132.5l7.018 7.018" stroke="#CFBD6F" stroke-width="6" stroke-linecap="square"/><path d="M98.5 388.5l7.018 7.018" stroke="#CFBD6F" stroke-width="6" stroke-linecap="square"/><path d="M805.5 324.85l-7.018 7.018" stroke="#CFBD6F" stroke-width="6" stroke-linecap="square"/><path d="M225.5 193.85l-7.018 7.018" stroke="#CFBD6F" stroke-width="6" stroke-linecap="square"/><path d="M494.5 334.85l-7.018 7.018" stroke="#CFBD6F" stroke-width="6" stroke-linecap="square"/><path d="M721.5 177.85l-7.018 7.018" stroke="#CFBD6F" stroke-width="6" stroke-linecap="square"/></g></svg>