<svg width="580" height="280" viewBox="0 0 580 280" xmlns="http://www.w3.org/2000/svg" xmlns:xlink="http://www.w3.org/1999/xlink"><title>Group 28</title><desc>Created with Sketch.</desc><defs><path id="a" d="M0 .645l144.567 46.85v145.234l-144.567-46.85z"/></defs><g fill="none"><g><g><path id="Rectangle-3" fill="#CFBD6F" d="M84.92 221.311l95.123-22.19 55.007 17.739-95.123 22.19z"/><path id="Rectangle-3-Copy-2" fill="#CFBD6F" d="M0 261.956l94.365-22.273 54.629 17.766-93.988 22.247-5.704-13.118z"/><path d="M140.41 249.441c1.683-.265 3.038-1.265 4.219-1.842 1.092-.533 2.099-.479 2.099-.479s5.476-.576 6.055 4.509c.579 5.085-3.73 5.846-3.73 5.846l-54.774-17.76s2.153-.129 3.279-3.087c.267-.703 1.111-2.984-1.002-5.383s-5.218-1.453-5.218-1.453 45.097 20.276 49.071 19.649z" id="Path-5" fill="#A19355"/><path d="M140.036 238.976s-2.653-.106-4.205 2.827.223 5.621 1.359 6.556c1.136.935 2.773 1.075 2.773 1.075s-1.081.132-3.291-.719c-2.21-.852-51.572-16.827-51.572-16.827s-4.631-.983-4.631-4.544c0-3.561 1.253-4.531 2.44-5.158 1.187-.627 2.14-.83 2.14-.83l54.987 17.619z" id="Path-4" fill="#CFBD6F"/></g><g><path fill="#CFBD6F" d="M495.08 221.311l-95.123-22.19-55.007 17.739 95.123 22.19z"/><path fill="#CFBD6F" d="M580 261.956l-94.365-22.273-54.629 17.766 93.988 22.247 7.006-12.569z"/><path d="M439.59 249.441c-1.683-.265-3.038-1.265-4.219-1.842-1.092-.533-2.099-.479-2.099-.479s-5.476-.576-6.055 4.509c-.579 5.085 3.73 5.846 3.73 5.846l54.774-17.76s-2.153-.129-3.279-3.087c-.267-.703-1.111-2.984 1.002-5.383s5.218-1.453 5.218-1.453-45.097 20.276-49.071 19.649z" fill="#A19355"/><path d="M439.964 238.976s2.653-.106 4.205 2.827-.223 5.621-1.359 6.556c-1.136.935-2.773 1.075-2.773 1.075s1.081.132 3.291-.719c2.21-.852 51.572-16.827 51.572-16.827s4.631-.983 4.631-4.544c0-3.561-1.253-4.531-2.44-5.158-1.187-.627-2.14-.83-2.14-.83l-54.987 17.619z" fill="#CFBD6F"/></g><path d="M134.764 189.459c-8.985 2.729-9.02 7.288-.096 10.176l140.176 45.377c8.932 2.891 23.406 2.872 32.329-.042l139.224-45.475c8.923-2.915 8.855-7.393-.164-10.006l-143.145-41.471c-9.014-2.611-23.605-2.516-32.589.213l-135.735 41.228z" fill="#ccc" style="mix-blend-mode:multiply" opacity=".257"/><g transform="translate(145 42.121)"><mask><use xlink:href="#a"/></mask><use fill="#20D7C0" xlink:href="#a"/></g><path fill="#27E6CE" d="M289 88.97l144.567-46.85v145.234l-144.567 46.85z"/></g><path fill="#27BAA7" d="M146 42.945l144.552 46.794 143.729-46.947-147.289-42.671z"/></g></svg>