<svg width="319" height="134" viewBox="0 0 319 134" xmlns="http://www.w3.org/2000/svg"><title>Group 30</title><desc>Created with Sketch.</desc><g fill="none"><g><g><path fill="#20D7C0" d="M.117 50.977l159.081 51.488v30.893l-159.081-51.488z"/><path fill="#27E6CE" d="M159.198 102.465l159.081-51.488v30.893l-159.081 51.488z"/><path fill="#27BAA7" d="M.108 50.993l159.041 51.451 159.109-51.451-162.994-47.643z"/></g><path fill="#C2B163" d="M50.397 67.291l60.275 19.376v30.995l-60.275-19.472z"/><path fill="#E6D483" d="M266.942 67.71l-60.275 19.376v30.995l60.275-19.472z"/><path fill="#CFBD6F" d="M50.172 67.194l152.413-49.85 62.798 18.165-154.873 51.106z"/><path fill="#CFBD6F" d="M267.094 67.622l-154.046-51.303-60.979 18.68 154.494 52.118z"/></g><g><g><path d="M155.846 25.309c62.24-11.886 62.828-18.951 73.156-23.129 10.327-4.178 11.059-2.057 13.828 4.788 2.769 6.845-33.127 31.484-33.127 31.484s-1.965 8.697-10.974 8.39c-9.009-.307-63.36-4.666-63.36-4.666s6.05-10.704 20.478-16.867z" fill="#CFBD6F"/><path d="M156.002 23.272s-25.43-6.329-40.729-9.359c-14.724-2.916-30.303-9.684-35.368-11.733-6.212-2.513-10.406-2.445-12.49-.684-1.38 1.167-2.225 4.662-.003 6.995 6.777 7.116 31.792 29.961 31.792 29.961s3.97 5.169 12.979 4.862c9.009-.307 61.355-1.138 61.355-1.138l-17.536-18.905z" fill="#C2B063"/></g><path d="M160.925 39.35s-39.239-.048-50.325-.814c-1.65-.114-2.974-.645-3.24-.781-1.739-.89-1.995-3.858.327-4.948 2.321-1.09 53.239 6.544 53.239 6.544z" fill="#AB994F"/><path d="M159.999 39.35s39.239-.048 50.325-.814c1.65-.114 2.974-.645 3.24-.781 1.739-.89 1.995-3.858-.327-4.948-2.321-1.09-53.239 6.544-53.239 6.544z" fill="#AB994F"/></g></g></svg>