<svg width="86" height="75" viewBox="0 0 86 75" xmlns="http://www.w3.org/2000/svg"><title>Group 21</title><desc>Created with Sketch.</desc><g transform="translate(0 0)" fill="none"><rect id="Rectangle-11" fill="#9F9F9F" x="8" y="8" width="78" height="67" rx="3"></rect><rect id="Rectangle-11" fill="#C1C1C1" x="4" y="4" width="78" height="67" rx="3"></rect><rect fill="#fff" width="78" height="67" rx="3"></rect><path d="M60 51.993c0-1.653 1.353-2.993 2.993-2.993h15.007l-18 18v-15.007z" id="Rectangle-5" fill="#C1C1C1"></path><path d="M78 64.007c0 1.653-1.353 2.993-2.993 2.993h-15.007l18-18v15.007z" fill="#ddd"></path><path d="M23.728 50h15.552v-4.192h-9.6c0-1.792.832-2.496 3.904-4.544 2.208-1.312 5.856-3.584 5.856-7.36 0-4.736-3.552-6.784-7.68-6.784-5.088 0-7.968 3.104-7.968 7.168h5.152c0-2.336 1.248-3.264 2.848-3.264 1.44 0 2.56.736 2.56 2.528 0 2.24-2.08 3.296-4.704 4.864-3.456 2.144-5.92 4.32-5.92 11.584zm17.952-14.816h4.608v14.816h5.28v-22.4h-4.576c0 2.688-.96 3.936-5.312 3.936v3.648z" fill="#D0BE72"></path><path d="M12.5 16.5h54.037" stroke="#27E6CE" stroke-width="5" stroke-linecap="square"></path></g></svg>